HIERARCHY
ROOT hip
{
	OFFSET 0.000000 103.875999 0.000000
	CHANNELS 6 Xposition Yposition Zposition Zrotation Xrotation Yrotation
	JOINT pelvis
	{
		OFFSET 0.000000 1.960999 1.816590
		CHANNELS 3 Zrotation Xrotation Yrotation
		JOINT lThigh
		{
			OFFSET 8.366980 -10.167595 -1.218358
			CHANNELS 3 Zrotation Xrotation Yrotation
			JOINT lShin
			{
				OFFSET 2.192420 -43.463001 -0.492826
				CHANNELS 3 Zrotation Xrotation Yrotation
				JOINT lFoot
				{
					OFFSET 0.733200 -45.859291 -2.644826
					CHANNELS 3 Zrotation Xrotation Yrotation
					JOINT lToe
					{
						OFFSET 2.661800 -4.269930 12.393040
						CHANNELS 3 Zrotation Xrotation Yrotation
						JOINT lBigToe
						{
							OFFSET -2.523600 -0.126930 1.072181
							CHANNELS 3 Zrotation Xrotation Yrotation
							End Site
							{
								OFFSET -10.559400 -34.507198 -1.699234
							}
						}
					}
				}
			}
		}
		JOINT rThigh
		{
			OFFSET -8.366980 -10.167595 -1.218358
			CHANNELS 3 Zrotation Xrotation Yrotation
			JOINT rShin
			{
				OFFSET -2.192420 -43.463001 -0.492826
				CHANNELS 3 Zrotation Xrotation Yrotation
				JOINT rFoot
				{
					OFFSET -0.733200 -45.859291 -2.644826
					CHANNELS 3 Zrotation Xrotation Yrotation
					JOINT rToe
					{
						OFFSET -2.661800 -4.269930 12.393040
						CHANNELS 3 Zrotation Xrotation Yrotation
						JOINT rBigToe
						{
							OFFSET 2.523600 -0.126930 1.072181
							CHANNELS 3 Zrotation Xrotation Yrotation
							End Site
							{
								OFFSET 0.000000 25.847000 -1.288400
							}
						}
					}
				}
			}
		}
	}
	JOINT abdomen
	{
		OFFSET 0.000000 -1.185997 -1.501780
		CHANNELS 3 Zrotation Xrotation Yrotation
		JOINT abdomen2
		{
			OFFSET 0.000000 9.963997 0.213380
			CHANNELS 3 Zrotation Xrotation Yrotation
			JOINT chest
			{
				OFFSET 0.000000 13.134003 -3.257290
				CHANNELS 3 Zrotation Xrotation Yrotation
				JOINT neck
				{
					OFFSET 0.000000 26.038002 -0.123680
					CHANNELS 3 Zrotation Xrotation Yrotation
					JOINT head
					{
						OFFSET 0.000000 10.016998 2.387170
						CHANNELS 3 Zrotation Xrotation Yrotation
						JOINT rEye
						{
							OFFSET -3.223640 6.182999 7.817050
							CHANNELS 3 Zrotation Xrotation Yrotation
							End Site
							{
								OFFSET 3.222440 -11.542007 9.555910
							}
						}
						JOINT lEye
						{
							OFFSET 3.223640 6.182999 7.817050
							CHANNELS 3 Zrotation Xrotation Yrotation
							End Site
							{
								OFFSET 0.000000 -16.595993 10.558820
							}
						}
						JOINT upperJaw
						{
							OFFSET 0.000000 1.285004 2.248633
							CHANNELS 3 Zrotation Xrotation Yrotation
							End Site
							{
								OFFSET 0.000000 -20.257996 10.690930
							}
						}
						JOINT lowerJaw
						{
							OFFSET 0.000000 1.216995 2.034156
							CHANNELS 3 Zrotation Xrotation Yrotation
							JOINT tongueBase
							{
								OFFSET 0.000000 -3.218002 3.540424
								CHANNELS 3 Zrotation Xrotation Yrotation
								JOINT tongue01
								{
									OFFSET 0.000000 0.694000 0.233400
									CHANNELS 3 Zrotation Xrotation Yrotation
									JOINT tongue02
									{
										OFFSET 0.000000 0.355011 0.747810
										CHANNELS 3 Zrotation Xrotation Yrotation
										JOINT tongue03
										{
											OFFSET 0.000000 0.128998 0.763490
											CHANNELS 3 Zrotation Xrotation Yrotation
											JOINT tongue04
											{
												OFFSET 0.000000 0.017990 0.770580
												CHANNELS 3 Zrotation Xrotation Yrotation
												JOINT tongue05
												{
													OFFSET 0.000000 -0.021988 0.660880
													CHANNELS 3 Zrotation Xrotation Yrotation
													JOINT tongueTip
													{
														OFFSET 0.000000 -0.014999 0.628860
														CHANNELS 3 Zrotation Xrotation Yrotation
														End Site
														{
															OFFSET -14.874200 -2.454010 0.219530
														}
													}
												}
											}
										}
									}
								}
							}
						}
					}
				}
				JOINT rCollar
				{
					OFFSET -1.706880 20.075005 5.005592
					CHANNELS 3 Zrotation Xrotation Yrotation
					JOINT rShldr
					{
						OFFSET -13.645821 -0.047012 -4.849022
						CHANNELS 3 Zrotation Xrotation Yrotation
						JOINT rForeArm
						{
							OFFSET -28.325600 -0.974991 2.287890
							CHANNELS 3 Zrotation Xrotation Yrotation
							JOINT rHand
							{
								OFFSET -22.158203 -0.529999 10.831750
								CHANNELS 3 Zrotation Xrotation Yrotation
								JOINT rThumb1
								{
									OFFSET -0.785995 0.112000 2.581679
									CHANNELS 3 Zrotation Xrotation Yrotation
									JOINT rThumb2
									{
										OFFSET -0.360100 -0.878006 4.233100
										CHANNELS 3 Zrotation Xrotation Yrotation
										JOINT rThumb3
										{
											OFFSET -1.812706 -1.216003 2.222700
											CHANNELS 3 Zrotation Xrotation Yrotation
											End Site
											{
												OFFSET -3.125099 0.651993 4.385200
											}
										}
									}
								}
								JOINT rCarpal1
								{
									OFFSET -0.957100 1.113998 1.769480
									CHANNELS 3 Zrotation Xrotation Yrotation
									JOINT rIndex1
									{
										OFFSET -4.124596 0.487000 4.145100
										CHANNELS 3 Zrotation Xrotation Yrotation
										JOINT rIndex2
										{
											OFFSET -3.405205 -1.454010 2.768200
											CHANNELS 3 Zrotation Xrotation Yrotation
											JOINT rIndex3
											{
												OFFSET -1.453094 -1.794998 1.271301
												CHANNELS 3 Zrotation Xrotation Yrotation
												End Site
												{
													OFFSET -3.718102 -1.483994 0.688900
												}
											}
										}
									}
									JOINT rMid1
									{
										OFFSET -5.695396 0.209991 2.118400
										CHANNELS 3 Zrotation Xrotation Yrotation
										JOINT rMid2
										{
											OFFSET -3.976601 -1.539993 2.386300
											CHANNELS 3 Zrotation Xrotation Yrotation
											JOINT rMid3
											{
												OFFSET -1.404198 -1.925995 1.125000
												CHANNELS 3 Zrotation Xrotation Yrotation
												End Site
												{
													OFFSET -4.334801 -0.472000 0.055210
												}
											}
										}
									}
								}
								JOINT rCarpal2
								{
									OFFSET -2.095596 0.659988 -0.389390
									CHANNELS 3 Zrotation Xrotation Yrotation
									JOINT rRing1
									{
										OFFSET -5.039505 -0.089996 2.497069
										CHANNELS 3 Zrotation Xrotation Yrotation
										JOINT rRing2
										{
											OFFSET -3.792099 -1.552002 1.480600
											CHANNELS 3 Zrotation Xrotation Yrotation
											JOINT rRing3
											{
												OFFSET -1.465500 -1.807999 0.960900
												CHANNELS 3 Zrotation Xrotation Yrotation
												End Site
												{
													OFFSET -2.036697 -2.438004 -0.439301
												}
											}
										}
									}
									JOINT rPinky1
									{
										OFFSET -4.914101 -1.268997 0.359150
										CHANNELS 3 Zrotation Xrotation Yrotation
										JOINT rPinky2
										{
											OFFSET -3.147697 -1.684998 0.846230
											CHANNELS 3 Zrotation Xrotation Yrotation
											JOINT rPinky3
											{
												OFFSET -0.805504 -1.584991 0.795490
												CHANNELS 3 Zrotation Xrotation Yrotation
												End Site
												{
													OFFSET 14.874200 -2.454010 0.219530
												}
											}
										}
									}
								}
							}
						}
					}
				}
				JOINT lCollar
				{
					OFFSET 1.706880 20.075005 5.005592
					CHANNELS 3 Zrotation Xrotation Yrotation
					JOINT lShldr
					{
						OFFSET 13.645821 -0.047012 -4.849022
						CHANNELS 3 Zrotation Xrotation Yrotation
						JOINT lForeArm
						{
							OFFSET 28.325600 -0.974991 2.287890
							CHANNELS 3 Zrotation Xrotation Yrotation
							JOINT lHand
							{
								OFFSET 22.158203 -0.529999 10.831750
								CHANNELS 3 Zrotation Xrotation Yrotation
								JOINT lThumb1
								{
									OFFSET 0.785995 0.112000 2.581679
									CHANNELS 3 Zrotation Xrotation Yrotation
									JOINT lThumb2
									{
										OFFSET 0.360100 -0.878006 4.233100
										CHANNELS 3 Zrotation Xrotation Yrotation
										JOINT lThumb3
										{
											OFFSET 1.812706 -1.216003 2.222700
											CHANNELS 3 Zrotation Xrotation Yrotation
											End Site
											{
												OFFSET 3.125099 0.651993 4.385200
											}
										}
									}
								}
								JOINT lCarpal1
								{
									OFFSET 0.957100 1.113998 1.769480
									CHANNELS 3 Zrotation Xrotation Yrotation
									JOINT lIndex1
									{
										OFFSET 4.124596 0.487000 4.145100
										CHANNELS 3 Zrotation Xrotation Yrotation
										JOINT lIndex2
										{
											OFFSET 3.405205 -1.454010 2.768200
											CHANNELS 3 Zrotation Xrotation Yrotation
											JOINT lIndex3
											{
												OFFSET 1.453094 -1.794998 1.271301
												CHANNELS 3 Zrotation Xrotation Yrotation
												End Site
												{
													OFFSET 3.718102 -1.483994 0.688900
												}
											}
										}
									}
									JOINT lMid1
									{
										OFFSET 5.695396 0.209991 2.118400
										CHANNELS 3 Zrotation Xrotation Yrotation
										JOINT lMid2
										{
											OFFSET 3.976601 -1.539993 2.386300
											CHANNELS 3 Zrotation Xrotation Yrotation
											JOINT lMid3
											{
												OFFSET 1.404198 -1.925995 1.125000
												CHANNELS 3 Zrotation Xrotation Yrotation
												End Site
												{
													OFFSET 4.334801 -0.472000 0.055210
												}
											}
										}
									}
								}
								JOINT lCarpal2
								{
									OFFSET 2.095596 0.659988 -0.389390
									CHANNELS 3 Zrotation Xrotation Yrotation
									JOINT lRing1
									{
										OFFSET 5.039505 -0.089996 2.497069
										CHANNELS 3 Zrotation Xrotation Yrotation
										JOINT lRing2
										{
											OFFSET 3.792099 -1.552002 1.480600
											CHANNELS 3 Zrotation Xrotation Yrotation
											JOINT lRing3
											{
												OFFSET 1.465500 -1.807999 0.960900
												CHANNELS 3 Zrotation Xrotation Yrotation
												End Site
												{
													OFFSET 2.036697 -2.438004 -0.439301
												}
											}
										}
									}
									JOINT lPinky1
									{
										OFFSET 4.914101 -1.268997 0.359150
										CHANNELS 3 Zrotation Xrotation Yrotation
										JOINT lPinky2
										{
											OFFSET 3.147697 -1.684998 0.846230
											CHANNELS 3 Zrotation Xrotation Yrotation
											JOINT lPinky3
											{
												OFFSET 0.805504 -1.584991 0.795490
												CHANNELS 3 Zrotation Xrotation Yrotation
												End Site
												{
													OFFSET -10.006100 -17.102005 14.134940
												}
											}
										}
									}
								}
							}
						}
					}
				}
				JOINT rPectoral
				{
					OFFSET -7.747090 8.825996 2.793170
					CHANNELS 3 Zrotation Xrotation Yrotation
					End Site
					{
						OFFSET 10.006100 -17.102005 14.134940
					}
				}
				JOINT lPectoral
				{
					OFFSET 7.747090 8.825996 2.793170
					CHANNELS 3 Zrotation Xrotation Yrotation
					End Site
					{
						OFFSET 10.006100 -17.102005 14.134940
					}
				}
			}
		}
	}
}
MOTION
Frames:	4
Frame Time:	0.0333333
5.299985 3.162753 165.342728 1.233162 -42.134789 75.865288 0.000000 0.000000 0.000000 37.425289 -12.086063 29.396353 -0.550065 29.336601 14.294640 28.184858 -17.855206 -10.820573 -6.591482 -12.670100 2.758585 0.000000 0.000000 0.000000 -19.246981 -29.393497 -46.297974 -172.687012 75.645134 156.782730 -0.164721 -24.766300 5.181014 0.000000 0.000000 0.000000 0.000000 0.000000 0.000000 -1.661877 10.816957 0.241261 0.000000 0.000000 0.000000 -0.851917 21.640108 0.189579 -1.520210 -10.189296 -24.812403 45.883156 36.876537 -38.906425 0.000000 0.000000 0.000000 0.000000 0.000000 0.000000 0.000000 0.000000 0.000000 0.000000 0.000000 0.000000 0.000000 0.000000 0.000000 0.000000 0.000000 0.000000 0.000000 0.000000 0.000000 0.000000 0.000000 0.000000 0.000000 0.000000 0.000000 0.000000 0.000000 0.000000 0.000000 0.000000 0.000000 0.000000 0.000000 0.000000 42.041142 -18.950817 -29.131620 -3.657266 11.706825 -1.573436 2.496938 2.889668 2.323540 0.000000 0.000000 0.000000 0.000000 0.000000 0.000000 -5.220407 -14.805152 10.623014 0.000000 0.000000 0.000000 -9.281522 -12.812913 -14.088767 -3.510273 8.225014 2.865386 15.048495 -4.318529 8.733552 -14.676109 14.724191 -6.884120 6.041578 -6.928854 13.942078 18.616533 -7.087306 15.150666 0.000000 0.000000 0.000000 -6.420104 14.404763 8.385865 -0.254646 -3.886809 6.572272 5.186723 -7.194850 7.119436 1.995587 13.763615 11.901013 -11.251287 -1.259122 -1.919388 11.472512 3.468227 7.735999 -3.147415 0.081275 2.102604 5.451202 -12.142248 -56.038784 9.122248 13.856494 -11.653393 -6.250777 6.897486 -1.785978 0.000000 0.000000 0.000000 4.950718 -14.257701 -11.216743 5.184948 -14.677554 -10.541025 0.000000 0.000000 0.000000 10.290952 -13.277908 14.620515 3.668291 6.191311 -4.537993 -19.726669 -0.300941 -8.174742 15.716325 14.332816 6.965017 -5.357567 -7.805269 -13.423576 -21.488796 -4.979442 -15.749303 0.000000 0.000000 0.000000 7.925832 14.455310 -7.190382 1.381885 -4.160105 -6.277158 -15.156159 -2.940735 -12.584713 -0.192238 13.149671 -11.664403 12.283473 -1.395427 2.391198 -18.718184 -0.135455 -13.526764 0.000000 0.000000 0.000000 -0.000306 -0.000031 0.236999 
5.756118 2.209296 163.930969 -1.495806 -35.203716 67.871811 0.000000 0.000000 0.000000 31.409847 -11.511729 31.090742 -3.295603 28.605028 20.377707 27.911676 -18.080656 -10.736848 -6.735672 -12.906873 2.827214 0.000000 0.000000 0.000000 -12.999098 -25.338108 -46.045216 -171.792404 78.691711 154.819000 0.052539 -20.026958 5.060292 0.000000 0.000000 0.000000 0.000000 0.000000 0.000000 -3.410722 7.783205 0.449898 0.000000 0.000000 0.000000 -4.612878 15.552094 0.855818 -2.268455 -9.241483 -26.698240 40.973320 40.401543 -36.018032 0.000000 0.000000 0.000000 0.000000 0.000000 0.000000 0.000000 0.000000 0.000000 0.000000 0.000000 0.000000 0.000000 0.000000 0.000000 0.000000 0.000000 0.000000 0.000000 0.000000 0.000000 0.000000 0.000000 0.000000 0.000000 0.000000 0.000000 0.000000 0.000000 0.000000 0.000000 0.000000 0.000000 0.000000 0.000000 0.000000 39.380608 -13.715714 -26.866957 -5.617462 8.237447 15.009959 2.729051 2.882528 0.192634 0.000000 0.000000 0.000000 0.000000 0.000000 0.000000 -5.220407 -14.805152 10.623014 0.000000 0.000000 0.000000 -9.281522 -12.812913 -14.088767 -3.510273 8.225014 2.865386 15.048495 -4.318529 8.733552 -14.676109 14.724191 -6.884120 6.041578 -6.928854 13.942078 18.616533 -7.087306 15.150666 0.000000 0.000000 0.000000 -6.420104 14.404763 8.385865 -0.254646 -3.886809 6.572272 5.186723 -7.194850 7.119436 1.995587 13.763615 11.901013 -11.251287 -1.259122 -1.919388 11.472512 3.468227 7.735999 -3.261091 0.081450 2.178576 7.192375 -2.934486 -38.699532 9.422989 15.059674 -8.885823 -6.314953 6.412221 1.191297 0.000000 0.000000 0.000000 4.950718 -14.257701 -11.216743 5.184948 -14.677554 -10.541025 0.000000 0.000000 0.000000 10.290952 -13.277908 14.620515 3.668291 6.191311 -4.537993 -19.726669 -0.300941 -8.174742 15.716325 14.332816 6.965017 -5.357567 -7.805269 -13.423576 -21.488796 -4.979442 -15.749303 0.000000 0.000000 0.000000 7.925832 14.455310 -7.190382 1.381885 -4.160105 -6.277158 -15.156159 -2.940735 -12.584713 -0.192238 13.149671 -11.664403 12.283473 -1.395427 2.391198 -18.718184 -0.135455 -13.526764 0.000000 0.000000 0.000000 -0.000317 -0.000032 0.245701 
6.397585 1.770029 161.808563 -2.735105 -28.926838 60.693737 0.000000 0.000000 0.000000 24.789745 -10.350939 30.335752 -5.954333 24.660959 27.536739 27.485630 -16.429632 -11.132490 -5.094920 -14.785028 2.304414 0.000000 0.000000 0.000000 -8.347845 -18.510857 -44.456787 -162.486969 86.563499 142.517334 1.442484 -17.492252 4.859152 0.000000 0.000000 0.000000 0.000000 0.000000 0.000000 -4.343445 5.035405 0.617656 0.000000 0.000000 0.000000 -6.852950 10.036214 1.173388 -2.107389 -7.570857 -24.988718 37.221691 40.095726 -33.801662 0.000000 0.000000 0.000000 0.000000 0.000000 0.000000 0.000000 0.000000 0.000000 0.000000 0.000000 0.000000 0.000000 0.000000 0.000000 0.000000 0.000000 0.000000 0.000000 0.000000 0.000000 0.000000 0.000000 0.000000 0.000000 0.000000 0.000000 0.000000 0.000000 0.000000 0.000000 0.000000 0.000000 0.000000 0.000000 0.000000 36.474586 -7.805103 -23.280195 -7.201264 5.011755 31.044662 3.250869 3.078845 -2.603161 0.000000 0.000000 0.000000 0.000000 0.000000 0.000000 -5.220407 -14.805152 10.623014 0.000000 0.000000 0.000000 -9.281522 -12.812913 -14.088767 -3.510273 8.225014 2.865386 15.048495 -4.318529 8.733552 -14.676109 14.724191 -6.884120 6.041578 -6.928854 13.942078 18.616533 -7.087306 15.150666 0.000000 0.000000 0.000000 -6.420104 14.404763 8.385865 -0.254646 -3.886809 6.572272 5.186723 -7.194850 7.119436 1.995587 13.763615 11.901013 -11.251287 -1.259122 -1.919388 11.472512 3.468227 7.735999 -3.371342 0.081488 2.252258 4.766728 7.274333 -21.587261 10.410412 17.164755 -5.893994 -6.020372 6.176740 0.803144 0.000000 0.000000 0.000000 4.950718 -14.257701 -11.216743 5.184948 -14.677554 -10.541025 0.000000 0.000000 0.000000 10.290952 -13.277908 14.620515 3.668291 6.191311 -4.537993 -19.726669 -0.300941 -8.174742 15.716325 14.332816 6.965017 -5.357567 -7.805269 -13.423576 -21.488796 -4.979442 -15.749303 0.000000 0.000000 0.000000 7.925832 14.455310 -7.190382 1.381885 -4.160105 -6.277158 -15.156159 -2.940735 -12.584713 -0.192238 13.149671 -11.664403 12.283473 -1.395427 2.391198 -18.718184 -0.135455 -13.526764 0.000000 0.000000 0.000000 -0.000328 -0.000033 0.254148 
7.290191 1.426272 159.750748 -2.859348 -23.466829 53.759995 0.000000 0.000000 0.000000 17.967010 -9.932212 26.912817 -6.543088 20.635281 35.406460 25.773134 -13.878564 -11.532245 -2.877879 -17.292421 1.573832 0.000000 0.000000 0.000000 -5.513401 -10.782208 -40.953182 -2.712734 82.888382 -21.773512 1.116000 -17.020386 4.887426 0.000000 0.000000 0.000000 0.000000 0.000000 0.000000 -4.426431 2.914674 0.836867 0.000000 0.000000 0.000000 -7.460765 5.778149 1.510494 -1.135405 -6.633113 -22.695992 30.949429 38.580441 -29.928188 0.000000 0.000000 0.000000 0.000000 0.000000 0.000000 0.000000 0.000000 0.000000 0.000000 0.000000 0.000000 0.000000 0.000000 0.000000 0.000000 0.000000 0.000000 0.000000 0.000000 0.000000 0.000000 0.000000 0.000000 0.000000 0.000000 0.000000 0.000000 0.000000 0.000000 0.000000 0.000000 0.000000 0.000000 0.000000 0.000000 32.200924 -2.297920 -16.665297 -8.171429 2.318489 43.069458 4.174451 3.946040 -3.035431 0.000000 0.000000 0.000000 0.000000 0.000000 0.000000 -5.220407 -14.805152 10.623014 0.000000 0.000000 0.000000 -9.281522 -12.812913 -14.088767 -3.510273 8.225014 2.865386 15.048495 -4.318529 8.733552 -14.676109 14.724191 -6.884120 6.041578 -6.928854 13.942078 18.616533 -7.087306 15.150666 0.000000 0.000000 0.000000 -6.420104 14.404763 8.385865 -0.254646 -3.886809 6.572272 5.186723 -7.194850 7.119436 1.995587 13.763615 11.901013 -11.251287 -1.259122 -1.919388 11.472512 3.468227 7.735999 -3.481490 0.081399 2.325871 -4.272354 14.719007 -2.219955 8.502826 16.730742 -3.142446 -7.049190 6.768616 3.294841 0.000000 0.000000 0.000000 4.950718 -14.257701 -11.216743 5.184948 -14.677554 -10.541025 0.000000 0.000000 0.000000 10.290952 -13.277908 14.620515 3.668291 6.191311 -4.537993 -19.726669 -0.300941 -8.174742 15.716325 14.332816 6.965017 -5.357567 -7.805269 -13.423576 -21.488796 -4.979442 -15.749303 0.000000 0.000000 0.000000 7.925832 14.455310 -7.190382 1.381885 -4.160105 -6.277158 -15.156159 -2.940735 -12.584713 -0.192238 13.149671 -11.664403 12.283473 -1.395427 2.391198 -18.718184 -0.135455 -13.526764 0.000000 0.000000 0.000000 -0.000339 -0.000034 0.262595 
